<?xml version="1.0" encoding="UTF-8"?>
<svg version="1.1" xmlns="http://www.w3.org/2000/svg" width="800" height="800
">
<path d="M0 0 C0.91182207 -0.00226556 1.82364413 -0.00453111 2.76309717 -0.00686532 C5.79572173 -0.0131576 8.82830106 -0.01237904 11.8609314 -0.0115509 C14.04479021 -0.01454542 16.2286485 -0.01794862 18.4125061 -0.02172852 C24.3301498 -0.03054405 30.24777901 -0.03290563 36.16542864 -0.0335443 C39.8680629 -0.03425632 43.57069352 -0.03639354 47.27332687 -0.03904152 C60.87405148 -0.04876487 74.47476472 -0.05230741 88.07549255 -0.05146609 C99.43717513 -0.05103489 110.79881467 -0.06240968 122.16048682 -0.07733363 C132.50901455 -0.09043923 142.85752766 -0.09577258 153.20606363 -0.09513456 C159.37738842 -0.09488041 165.54867329 -0.09768534 171.71998978 -0.10831261 C177.52963208 -0.11804422 183.33919671 -0.11803824 189.14884186 -0.11079597 C191.27112569 -0.10975633 193.39341448 -0.11207582 195.51568985 -0.11815643 C224.47838464 -0.1957085 224.47838464 -0.1957085 236.68270874 4.45011902 C238.60371521 5.16691248 240.51923719 5.66912786 242.51473999 6.13371277 C242.51473999 6.79371277 242.51473999 7.45371277 242.51473999 8.13371277 C243.44286499 8.27808777 244.37098999 8.42246277 245.32723999 8.57121277 C248.51473999 9.13371277 248.51473999 9.13371277 251.51473999 10.13371277 C251.51473999 10.79371277 251.51473999 11.45371277 251.51473999 12.13371277 C252.19536499 12.21621277 252.87598999 12.29871277 253.57723999 12.38371277 C257.38943069 13.35703805 260.15544328 15.09178732 263.51473999 17.13371277 C263.51473999 17.79371277 263.51473999 18.45371277 263.51473999 19.13371277 C264.62848999 19.53590027 264.62848999 19.53590027 265.76473999 19.94621277 C268.40535948 21.08648027 270.37026843 22.22751583 272.51473999 24.13371277 C272.51473999 24.79371277 272.51473999 25.45371277 272.51473999 26.13371277 C273.35005249 26.50496277 273.35005249 26.50496277 274.20223999 26.88371277 C279.63683874 29.82133372 283.24502765 33.95229536 286.95223999 38.75871277 C287.43088501 39.37464294 287.90953003 39.99057312 288.40267944 40.62516785 C298.51473999 53.82278679 298.51473999 53.82278679 298.51473999 59.13371277 C299.17473999 59.13371277 299.83473999 59.13371277 300.51473999 59.13371277 C301.17473999 62.10371277 301.83473999 65.07371277 302.51473999 68.13371277 C303.17473999 68.13371277 303.83473999 68.13371277 304.51473999 68.13371277 C304.70809937 68.91875183 304.90145874 69.70379089 305.10067749 70.51261902 C305.36106812 71.56320496 305.62145874 72.61379089 305.88973999 73.69621277 C306.16173218 74.79836121 306.43372437 75.90050964 306.71395874 77.03605652 C307.29883267 79.29852007 307.97476286 81.5379931 308.70223999 83.75871277 C309.78442737 88.25395263 309.68132447 92.53413009 309.51473999 97.13371277 C310.17473999 97.13371277 310.83473999 97.13371277 311.51473999 97.13371277 C311.54362513 100.279527 311.56149922 103.42530746 311.57723999 106.57121277 C311.5856189 107.4690448 311.5939978 108.36687683 311.60263062 109.29191589 C311.6074646 110.57292175 311.6074646 110.57292175 311.61239624 111.87980652 C311.62025146 113.06594543 311.62025146 113.06594543 311.62826538 114.27604675 C311.51473999 116.13371277 311.51473999 116.13371277 310.51473999 117.13371277 C310.0658692 120.19282381 309.69730668 123.25105315 309.35263062 126.32316589 C308.84486103 130.50504062 307.96763419 134.18727006 306.51473999 138.13371277 C306.01064271 139.56808473 305.50816207 141.00302544 305.00692749 142.43840027 C304.46840379 143.96202831 303.92933196 145.48546272 303.38973999 147.00871277 C303.11259155 147.79246277 302.83544312 148.57621277 302.54989624 149.38371277 C301.87199067 151.30054921 301.19343206 153.21715467 300.51473999 155.13371277 C299.85473999 155.13371277 299.19473999 155.13371277 298.51473999 155.13371277 C298.12802124 156.43695496 298.12802124 156.43695496 297.73348999 157.76652527 C296.49347797 161.19245592 294.97442464 163.94462957 293.01473999 167.00871277 C292.40630249 167.97550964 291.79786499 168.94230652 291.17098999 169.93840027 C290.62442749 170.66285339 290.07786499 171.38730652 289.51473999 172.13371277 C288.85473999 172.13371277 288.19473999 172.13371277 287.51473999 172.13371277 C287.26723999 172.69058777 287.01973999 173.24746277 286.76473999 173.82121277 C285.28549181 176.5578219 283.5800656 178.81022146 281.51473999 181.13371277 C280.85473999 181.13371277 280.19473999 181.13371277 279.51473999 181.13371277 C279.18473999 182.12371277 278.85473999 183.11371277 278.51473999 184.13371277 C276.80035251 185.69791424 275.01912229 187.18983279 273.20223999 188.63371277 C272.23673218 189.40715027 271.27122437 190.18058777 270.27645874 190.97746277 C269.36509155 191.68902527 268.45372437 192.40058777 267.51473999 193.13371277 C266.7786853 193.72152527 266.04263062 194.30933777 265.28427124 194.91496277 C263.51473999 196.13371277 263.51473999 196.13371277 261.51473999 196.13371277 C261.51473999 196.79371277 261.51473999 197.45371277 261.51473999 198.13371277 C258.04973999 199.12371277 258.04973999 199.12371277 254.51473999 200.13371277 C254.51473999 200.79371277 254.51473999 201.45371277 254.51473999 202.13371277 C243.28427124 206.62590027 243.28427124 206.62590027 241.31088257 207.40861511 C239.82573948 208.00816316 238.35544694 208.64435376 236.88973999 209.28996277 C234.1231389 210.27283421 231.62649964 210.54732051 228.70223999 210.75871277 C227.23850952 210.87086121 227.23850952 210.87086121 225.74520874 210.98527527 C225.00915405 211.03425964 224.27309937 211.08324402 223.51473999 211.13371277 C223.51473999 211.79371277 223.51473999 212.45371277 223.51473999 213.13371277 C217.31209824 213.91481059 211.28122882 214.27739367 205.03379822 214.26069641 C204.12253188 214.2622564 203.21126553 214.26381639 202.27238506 214.26542366 C199.24190647 214.2693882 196.21147865 214.26626171 193.18099976 214.2631073 C190.99888073 214.26446337 188.81676192 214.26624446 186.63464355 214.26841736 C180.72353084 214.2729675 174.81243562 214.271212 168.9013226 214.26803827 C162.70670097 214.26550186 156.5120808 214.26785581 150.31745911 214.26942444 C139.91471081 214.27124252 129.51196963 214.26884942 119.10922241 214.26408386 C107.09467147 214.25864337 95.08014032 214.26040381 83.06558949 214.26591027 C72.73837182 214.27045337 62.41115926 214.27108603 52.08394092 214.2684716 C45.92117245 214.26691524 39.75841195 214.26669747 33.595644 214.27000809 C27.79998737 214.27290413 22.00435255 214.27087927 16.20869827 214.26511383 C14.08592833 214.26379547 11.96315654 214.26416461 9.84038734 214.2663765 C6.93445554 214.26912444 4.02859285 214.26566255 1.12266541 214.26069641 C0.29025143 214.26292713 -0.54216255 214.26515785 -1.39980119 214.26745617 C-7.14444897 214.24852114 -12.77985165 213.79467048 -18.48526001 213.13371277 C-18.48526001 212.47371277 -18.48526001 211.81371277 -18.48526001 211.13371277 C-19.23291626 211.07312683 -19.98057251 211.01254089 -20.75088501 210.95011902 C-21.73572876 210.86632996 -22.72057251 210.78254089 -23.73526001 210.69621277 C-25.19705688 210.57439636 -25.19705688 210.57439636 -26.68838501 210.45011902 C-29.04987754 210.18296693 -31.20427066 209.77999308 -33.48526001 209.13371277 C-33.48526001 208.47371277 -33.48526001 207.81371277 -33.48526001 207.13371277 C-34.45463501 207.05121277 -35.42401001 206.96871277 -36.42276001 206.88371277 C-41.15645102 206.23380027 -45.22510408 204.21065953 -49.48526001 202.13371277 C-49.48526001 201.47371277 -49.48526001 200.81371277 -49.48526001 200.13371277 C-50.31026001 199.92746277 -51.13526001 199.72121277 -51.98526001 199.50871277 C-55.8320656 197.99746772 -58.53654079 196.02136037 -61.75088501 193.47355652 C-63.45347496 192.06923194 -63.45347496 192.06923194 -65.48526001 191.13371277 C-65.48526001 190.47371277 -65.48526001 189.81371277 -65.48526001 189.13371277 C-66.16588501 188.96871277 -66.84651001 188.80371277 -67.54776001 188.63371277 C-71.23666012 186.7500191 -73.22454135 184.26829305 -75.83682251 181.10636902 C-77.42741445 179.12702449 -77.42741445 179.12702449 -79.19619751 177.50480652 C-80.48526001 176.13371277 -80.48526001 176.13371277 -80.48526001 174.13371277 C-81.14526001 174.13371277 -81.80526001 174.13371277 -82.48526001 174.13371277 C-84.74229435 171.31921814 -86.57138547 168.18872377 -88.48526001 165.13371277 C-89.05502563 164.23652527 -89.62479126 163.33933777 -90.21182251 162.41496277 C-94.48526001 155.52885495 -94.48526001 155.52885495 -94.48526001 152.13371277 C-95.14526001 151.80371277 -95.80526001 151.47371277 -96.48526001 151.13371277 C-97.11807251 149.06730652 -97.11807251 149.06730652 -97.61026001 146.57121277 C-97.77783813 145.74492371 -97.94541626 144.91863464 -98.11807251 144.06730652 C-98.23924438 143.42922058 -98.36041626 142.79113464 -98.48526001 142.13371277 C-99.14526001 142.13371277 -99.80526001 142.13371277 -100.48526001 142.13371277 C-100.69022095 141.06250183 -100.89518188 139.99129089 -101.10635376 138.88761902 C-101.3782871 137.49044426 -101.65043353 136.09331096 -101.92276001 134.69621277 C-102.05746704 133.98916199 -102.19217407 133.28211121 -102.33096313 132.55363464 C-102.76932899 129.04942012 -102.76932899 129.04942012 -104.48526001 126.13371277 C-106.33601029 113.38409972 -106.15866297 99.89341036 -104.48526001 87.13371277 C-103.82526001 87.13371277 -103.16526001 87.13371277 -102.48526001 87.13371277 C-102.45947876 86.46726746 -102.43369751 85.80082214 -102.40713501 85.11418152 C-101.95979686 77.84493653 -100.21001578 71.854777 -97.48526001 65.13371277 C-97.15526001 64.14371277 -96.82526001 63.15371277 -96.48526001 62.13371277 C-95.82526001 62.13371277 -95.16526001 62.13371277 -94.48526001 62.13371277 C-93.99026001 59.16371277 -93.99026001 59.16371277 -93.48526001 56.13371277 C-92.82526001 56.13371277 -92.16526001 56.13371277 -91.48526001 56.13371277 C-90.82526001 53.82371277 -90.16526001 51.51371277 -89.48526001 49.13371277 C-88.82526001 49.13371277 -88.16526001 49.13371277 -87.48526001 49.13371277 C-87.22229126 48.40152527 -86.95932251 47.66933777 -86.68838501 46.91496277 C-83.68211369 39.9654005 -78.35837729 34.73006543 -72.48526001 30.13371277 C-71.18588501 28.80340027 -71.18588501 28.80340027 -69.86026001 27.44621277 C-67.75275998 25.39417326 -66.17664337 24.23020229 -63.48526001 23.13371277 C-63.48526001 22.47371277 -63.48526001 21.81371277 -63.48526001 21.13371277 C-61.18447876 19.47746277 -61.18447876 19.47746277 -58.17276001 17.63371277 C-57.1866272 17.02527527 -56.20049438 16.41683777 -55.18447876 15.78996277 C-54.29373657 15.24340027 -53.40299438 14.69683777 -52.48526001 14.13371277 C-51.49526001 13.47371277 -50.50526001 12.81371277 -49.48526001 12.13371277 C-48.49526001 12.13371277 -47.50526001 12.13371277 -46.48526001 12.13371277 C-46.48526001 11.47371277 -46.48526001 10.81371277 -46.48526001 10.13371277 C-43.51526001 9.47371277 -40.54526001 8.81371277 -37.48526001 8.13371277 C-37.48526001 7.47371277 -37.48526001 6.81371277 -37.48526001 6.13371277 C-36.70022095 5.94035339 -35.91518188 5.74699402 -35.10635376 5.54777527 C-28.41998334 3.89620887 -28.41998334 3.89620887 -21.79776001 2.00871277 C-14.64454215 0.11918352 -7.36174356 -0.01365114 0 0 Z " fill="#3974C5" transform="translate(300.4852600097656,256.8662872314453)"/>
<path d="M0 0 C16.809375 -0.020625 33.61875 -0.04125 50.9375 -0.0625 C56.23288818 -0.071604 61.52827637 -0.08070801 66.98413086 -0.09008789 C73.48156738 -0.09460449 73.48156738 -0.09460449 76.52931213 -0.09544373 C78.6447521 -0.09697302 80.76019123 -0.10047699 82.87562561 -0.10557556 C86.09149679 -0.11293474 89.30731498 -0.11390466 92.52319336 -0.11352539 C93.45575171 -0.1171235 94.38831007 -0.12072161 95.34912777 -0.12442875 C100.97698513 -0.11559154 106.41659252 0.28427965 112 1 C112 1.66 112 2.32 112 3 C113.010625 3.061875 114.02125 3.12375 115.0625 3.1875 C121.95110802 4.00964852 128.49188527 6.70351681 135 9 C135 9.66 135 10.32 135 11 C135.71285156 11.08636719 136.42570313 11.17273438 137.16015625 11.26171875 C140.59998224 12.15597888 142.62035511 13.65868285 145.4375 15.8125 C149.85267883 19.15305548 149.85267883 19.15305548 154.4375 22.25 C156.95981439 23.97255617 159.00041226 25.69278338 161 28 C161 28.66 161 29.32 161 30 C161.99 30.33 162.98 30.66 164 31 C176 45.24229979 176 45.24229979 176 52 C176.66 52 177.32 52 178 52 C181.56032571 59.31076591 184.53430376 66.71829165 184 75 C184.66 75 185.32 75 186 75 C187.53157796 86.6235827 187.53157796 98.3764173 186 110 C185.34 110 184.68 110 184 110 C183.93941406 110.75925781 183.87882813 111.51851563 183.81640625 112.30078125 C183.73261719 113.29464844 183.64882813 114.28851563 183.5625 115.3125 C183.44068359 116.79169922 183.44068359 116.79169922 183.31640625 118.30078125 C183 121 183 121 182 124 C181.34 124 180.68 124 180 124 C179.89042969 124.88171875 179.78085937 125.7634375 179.66796875 126.671875 C178.99197554 130.03998151 178.005276 132.28208828 176.3125 135.25 C175.77367187 136.19617188 175.23484375 137.14234375 174.6796875 138.1171875 C173.84824219 139.54417969 173.84824219 139.54417969 173 141 C172.48695313 141.91007813 171.97390625 142.82015625 171.4453125 143.7578125 C168.72088664 148.48673822 166.11711825 152.3507361 162 156 C160.91912109 157.01513672 160.91912109 157.01513672 159.81640625 158.05078125 C145.11059511 171.70126117 145.11059511 171.70126117 138 173 C138 173.66 138 174.32 138 175 C136.35 175.33 134.7 175.66 133 176 C133 176.66 133 177.32 133 178 C130.6506432 178.80884557 128.2969478 179.5965353 125.9375 180.375 C125.30005859 180.59671875 124.66261719 180.8184375 124.00585938 181.046875 C109.19505559 185.86570111 93.59476287 185.27126316 78.22265625 185.1953125 C76.21252555 185.19236457 74.2023933 185.19032876 72.19226074 185.18920898 C64.81565011 185.1788085 57.43907254 185.15088633 50.0625 185.125 C33.541875 185.08375 17.02125 185.0425 0 185 C0 123.95 0 62.9 0 0 Z " fill="#FDFDFD" transform="translate(410,271)"/>
<path d="M0 0 C0.91182207 -0.00226556 1.82364413 -0.00453111 2.76309717 -0.00686532 C5.79572173 -0.0131576 8.82830106 -0.01237904 11.8609314 -0.0115509 C14.04479021 -0.01454542 16.2286485 -0.01794862 18.4125061 -0.02172852 C24.3301498 -0.03054405 30.24777901 -0.03290563 36.16542864 -0.0335443 C39.8680629 -0.03425632 43.57069352 -0.03639354 47.27332687 -0.03904152 C60.87405148 -0.04876487 74.47476472 -0.05230741 88.07549255 -0.05146609 C99.43717513 -0.05103489 110.79881467 -0.06240968 122.16048682 -0.07733363 C132.50901455 -0.09043923 142.85752766 -0.09577258 153.20606363 -0.09513456 C159.37738842 -0.09488041 165.54867329 -0.09768534 171.71998978 -0.10831261 C177.52963208 -0.11804422 183.33919671 -0.11803824 189.14884186 -0.11079597 C191.27112569 -0.10975633 193.39341448 -0.11207582 195.51568985 -0.11815643 C224.47838464 -0.1957085 224.47838464 -0.1957085 236.68270874 4.45011902 C238.60371521 5.16691248 240.51923719 5.66912786 242.51473999 6.13371277 C242.51473999 6.79371277 242.51473999 7.45371277 242.51473999 8.13371277 C243.44286499 8.27808777 244.37098999 8.42246277 245.32723999 8.57121277 C248.51473999 9.13371277 248.51473999 9.13371277 251.51473999 10.13371277 C251.51473999 10.79371277 251.51473999 11.45371277 251.51473999 12.13371277 C252.19536499 12.21621277 252.87598999 12.29871277 253.57723999 12.38371277 C257.38943069 13.35703805 260.15544328 15.09178732 263.51473999 17.13371277 C263.51473999 17.79371277 263.51473999 18.45371277 263.51473999 19.13371277 C264.62848999 19.53590027 264.62848999 19.53590027 265.76473999 19.94621277 C268.40535948 21.08648027 270.37026843 22.22751583 272.51473999 24.13371277 C272.51473999 24.79371277 272.51473999 25.45371277 272.51473999 26.13371277 C273.35005249 26.50496277 273.35005249 26.50496277 274.20223999 26.88371277 C279.63683874 29.82133372 283.24502765 33.95229536 286.95223999 38.75871277 C287.43088501 39.37464294 287.90953003 39.99057312 288.40267944 40.62516785 C298.51473999 53.82278679 298.51473999 53.82278679 298.51473999 59.13371277 C299.17473999 59.13371277 299.83473999 59.13371277 300.51473999 59.13371277 C301.17473999 62.10371277 301.83473999 65.07371277 302.51473999 68.13371277 C303.17473999 68.13371277 303.83473999 68.13371277 304.51473999 68.13371277 C304.70809937 68.91875183 304.90145874 69.70379089 305.10067749 70.51261902 C305.36106812 71.56320496 305.62145874 72.61379089 305.88973999 73.69621277 C306.16173218 74.79836121 306.43372437 75.90050964 306.71395874 77.03605652 C307.29883267 79.29852007 307.97476286 81.5379931 308.70223999 83.75871277 C309.78442737 88.25395263 309.68132447 92.53413009 309.51473999 97.13371277 C310.17473999 97.13371277 310.83473999 97.13371277 311.51473999 97.13371277 C311.54362513 100.279527 311.56149922 103.42530746 311.57723999 106.57121277 C311.5856189 107.4690448 311.5939978 108.36687683 311.60263062 109.29191589 C311.6074646 110.57292175 311.6074646 110.57292175 311.61239624 111.87980652 C311.62025146 113.06594543 311.62025146 113.06594543 311.62826538 114.27604675 C311.51473999 116.13371277 311.51473999 116.13371277 310.51473999 117.13371277 C310.0658692 120.19282381 309.69730668 123.25105315 309.35263062 126.32316589 C308.84486103 130.50504062 307.96763419 134.18727006 306.51473999 138.13371277 C306.01064271 139.56808473 305.50816207 141.00302544 305.00692749 142.43840027 C304.46840379 143.96202831 303.92933196 145.48546272 303.38973999 147.00871277 C303.11259155 147.79246277 302.83544312 148.57621277 302.54989624 149.38371277 C301.87199067 151.30054921 301.19343206 153.21715467 300.51473999 155.13371277 C299.85473999 155.13371277 299.19473999 155.13371277 298.51473999 155.13371277 C298.12802124 156.43695496 298.12802124 156.43695496 297.73348999 157.76652527 C296.49347797 161.19245592 294.97442464 163.94462957 293.01473999 167.00871277 C292.40630249 167.97550964 291.79786499 168.94230652 291.17098999 169.93840027 C290.62442749 170.66285339 290.07786499 171.38730652 289.51473999 172.13371277 C288.85473999 172.13371277 288.19473999 172.13371277 287.51473999 172.13371277 C287.26723999 172.69058777 287.01973999 173.24746277 286.76473999 173.82121277 C285.28549181 176.5578219 283.5800656 178.81022146 281.51473999 181.13371277 C280.85473999 181.13371277 280.19473999 181.13371277 279.51473999 181.13371277 C279.18473999 182.12371277 278.85473999 183.11371277 278.51473999 184.13371277 C276.80035251 185.69791424 275.01912229 187.18983279 273.20223999 188.63371277 C272.23673218 189.40715027 271.27122437 190.18058777 270.27645874 190.97746277 C269.36509155 191.68902527 268.45372437 192.40058777 267.51473999 193.13371277 C266.7786853 193.72152527 266.04263062 194.30933777 265.28427124 194.91496277 C263.51473999 196.13371277 263.51473999 196.13371277 261.51473999 196.13371277 C261.51473999 196.79371277 261.51473999 197.45371277 261.51473999 198.13371277 C258.04973999 199.12371277 258.04973999 199.12371277 254.51473999 200.13371277 C254.51473999 200.79371277 254.51473999 201.45371277 254.51473999 202.13371277 C243.28427124 206.62590027 243.28427124 206.62590027 241.31088257 207.40861511 C239.82573948 208.00816316 238.35544694 208.64435376 236.88973999 209.28996277 C234.1231389 210.27283421 231.62649964 210.54732051 228.70223999 210.75871277 C227.23850952 210.87086121 227.23850952 210.87086121 225.74520874 210.98527527 C225.00915405 211.03425964 224.27309937 211.08324402 223.51473999 211.13371277 C223.51473999 211.79371277 223.51473999 212.45371277 223.51473999 213.13371277 C217.31209824 213.91481059 211.28122882 214.27739367 205.03379822 214.26069641 C204.12253188 214.2622564 203.21126553 214.26381639 202.27238506 214.26542366 C199.24190647 214.2693882 196.21147865 214.26626171 193.18099976 214.2631073 C190.99888073 214.26446337 188.81676192 214.26624446 186.63464355 214.26841736 C180.72353084 214.2729675 174.81243562 214.271212 168.9013226 214.26803827 C162.70670097 214.26550186 156.5120808 214.26785581 150.31745911 214.26942444 C139.91471081 214.27124252 129.51196963 214.26884942 119.10922241 214.26408386 C107.09467147 214.25864337 95.08014032 214.26040381 83.06558949 214.26591027 C72.73837182 214.27045337 62.41115926 214.27108603 52.08394092 214.2684716 C45.92117245 214.26691524 39.75841195 214.26669747 33.595644 214.27000809 C27.79998737 214.27290413 22.00435255 214.27087927 16.20869827 214.26511383 C14.08592833 214.26379547 11.96315654 214.26416461 9.84038734 214.2663765 C6.93445554 214.26912444 4.02859285 214.26566255 1.12266541 214.26069641 C0.29025143 214.26292713 -0.54216255 214.26515785 -1.39980119 214.26745617 C-7.14444897 214.24852114 -12.77985165 213.79467048 -18.48526001 213.13371277 C-18.48526001 212.47371277 -18.48526001 211.81371277 -18.48526001 211.13371277 C-19.23291626 211.07312683 -19.98057251 211.01254089 -20.75088501 210.95011902 C-21.73572876 210.86632996 -22.72057251 210.78254089 -23.73526001 210.69621277 C-25.19705688 210.57439636 -25.19705688 210.57439636 -26.68838501 210.45011902 C-29.04987754 210.18296693 -31.20427066 209.77999308 -33.48526001 209.13371277 C-33.48526001 208.47371277 -33.48526001 207.81371277 -33.48526001 207.13371277 C-34.45463501 207.05121277 -35.42401001 206.96871277 -36.42276001 206.88371277 C-41.15645102 206.23380027 -45.22510408 204.21065953 -49.48526001 202.13371277 C-49.48526001 201.47371277 -49.48526001 200.81371277 -49.48526001 200.13371277 C-50.31026001 199.92746277 -51.13526001 199.72121277 -51.98526001 199.50871277 C-55.8320656 197.99746772 -58.53654079 196.02136037 -61.75088501 193.47355652 C-63.45347496 192.06923194 -63.45347496 192.06923194 -65.48526001 191.13371277 C-65.48526001 190.47371277 -65.48526001 189.81371277 -65.48526001 189.13371277 C-66.16588501 188.96871277 -66.84651001 188.80371277 -67.54776001 188.63371277 C-71.23666012 186.7500191 -73.22454135 184.26829305 -75.83682251 181.10636902 C-77.42741445 179.12702449 -77.42741445 179.12702449 -79.19619751 177.50480652 C-80.48526001 176.13371277 -80.48526001 176.13371277 -80.48526001 174.13371277 C-81.14526001 174.13371277 -81.80526001 174.13371277 -82.48526001 174.13371277 C-84.74229435 171.31921814 -86.57138547 168.18872377 -88.48526001 165.13371277 C-89.05502563 164.23652527 -89.62479126 163.33933777 -90.21182251 162.41496277 C-94.48526001 155.52885495 -94.48526001 155.52885495 -94.48526001 152.13371277 C-95.14526001 151.80371277 -95.80526001 151.47371277 -96.48526001 151.13371277 C-97.11807251 149.06730652 -97.11807251 149.06730652 -97.61026001 146.57121277 C-97.77783813 145.74492371 -97.94541626 144.91863464 -98.11807251 144.06730652 C-98.23924438 143.42922058 -98.36041626 142.79113464 -98.48526001 142.13371277 C-99.14526001 142.13371277 -99.80526001 142.13371277 -100.48526001 142.13371277 C-100.69022095 141.06250183 -100.89518188 139.99129089 -101.10635376 138.88761902 C-101.3782871 137.49044426 -101.65043353 136.09331096 -101.92276001 134.69621277 C-102.05746704 133.98916199 -102.19217407 133.28211121 -102.33096313 132.55363464 C-102.76932899 129.04942012 -102.76932899 129.04942012 -104.48526001 126.13371277 C-106.33601029 113.38409972 -106.15866297 99.89341036 -104.48526001 87.13371277 C-103.82526001 87.13371277 -103.16526001 87.13371277 -102.48526001 87.13371277 C-102.45947876 86.46726746 -102.43369751 85.80082214 -102.40713501 85.11418152 C-101.95979686 77.84493653 -100.21001578 71.854777 -97.48526001 65.13371277 C-97.15526001 64.14371277 -96.82526001 63.15371277 -96.48526001 62.13371277 C-95.82526001 62.13371277 -95.16526001 62.13371277 -94.48526001 62.13371277 C-93.99026001 59.16371277 -93.99026001 59.16371277 -93.48526001 56.13371277 C-92.82526001 56.13371277 -92.16526001 56.13371277 -91.48526001 56.13371277 C-90.82526001 53.82371277 -90.16526001 51.51371277 -89.48526001 49.13371277 C-88.82526001 49.13371277 -88.16526001 49.13371277 -87.48526001 49.13371277 C-87.22229126 48.40152527 -86.95932251 47.66933777 -86.68838501 46.91496277 C-83.68211369 39.9654005 -78.35837729 34.73006543 -72.48526001 30.13371277 C-71.18588501 28.80340027 -71.18588501 28.80340027 -69.86026001 27.44621277 C-67.75275998 25.39417326 -66.17664337 24.23020229 -63.48526001 23.13371277 C-63.48526001 22.47371277 -63.48526001 21.81371277 -63.48526001 21.13371277 C-61.18447876 19.47746277 -61.18447876 19.47746277 -58.17276001 17.63371277 C-57.1866272 17.02527527 -56.20049438 16.41683777 -55.18447876 15.78996277 C-54.29373657 15.24340027 -53.40299438 14.69683777 -52.48526001 14.13371277 C-51.49526001 13.47371277 -50.50526001 12.81371277 -49.48526001 12.13371277 C-48.49526001 12.13371277 -47.50526001 12.13371277 -46.48526001 12.13371277 C-46.48526001 11.47371277 -46.48526001 10.81371277 -46.48526001 10.13371277 C-43.51526001 9.47371277 -40.54526001 8.81371277 -37.48526001 8.13371277 C-37.48526001 7.47371277 -37.48526001 6.81371277 -37.48526001 6.13371277 C-36.70022095 5.94035339 -35.91518188 5.74699402 -35.10635376 5.54777527 C-28.41998334 3.89620887 -28.41998334 3.89620887 -21.79776001 2.00871277 C-14.64454215 0.11918352 -7.36174356 -0.01365114 0 0 Z M109.51473999 14.13371277 C109.51473999 75.18371277 109.51473999 136.23371277 109.51473999 199.13371277 C134.17192749 199.22652527 134.17192749 199.22652527 159.32723999 199.32121277 C164.4793811 199.34852478 169.63152222 199.37583679 174.93978882 199.40397644 C179.63902748 199.414022 179.63902748 199.414022 184.33827209 199.42004395 C186.39912369 199.42459075 188.45996833 199.435014 190.52076721 199.45043945 C208.408758 199.57740731 225.69673655 198.74677999 242.51473999 192.13371277 C242.51473999 191.47371277 242.51473999 190.81371277 242.51473999 190.13371277 C244.16473999 189.80371277 245.81473999 189.47371277 247.51473999 189.13371277 C247.51473999 188.47371277 247.51473999 187.81371277 247.51473999 187.13371277 C248.21598999 186.88621277 248.91723999 186.63871277 249.63973999 186.38371277 C258.66037945 182.46169561 267.17279474 175.32762008 273.26083374 167.67668152 C274.51473999 166.13371277 274.51473999 166.13371277 275.94247437 164.76335144 C277.5423963 163.10504726 278.70238771 161.46618299 279.92489624 159.51652527 C280.35737671 158.82687683 280.78985718 158.13722839 281.23544312 157.42668152 C281.67823608 156.71125183 282.12102905 155.99582214 282.57723999 155.25871277 C283.24723022 154.1971698 283.24723022 154.1971698 283.93075562 153.11418152 C288.28217627 146.14439362 288.28217627 146.14439362 289.51473999 138.13371277 C290.17473999 138.13371277 290.83473999 138.13371277 291.51473999 138.13371277 C292.85057898 133.29129644 293.76802118 129.1993366 293.51473999 124.13371277 C294.17473999 124.13371277 294.83473999 124.13371277 295.51473999 124.13371277 C297.04631795 112.51013007 297.04631795 100.75729547 295.51473999 89.13371277 C294.85473999 89.13371277 294.19473999 89.13371277 293.51473999 89.13371277 C293.41161499 87.83433777 293.30848999 86.53496277 293.20223999 85.19621277 C292.46010175 78.46395876 290.12213641 72.35135039 287.51473999 66.13371277 C286.85473999 66.13371277 286.19473999 66.13371277 285.51473999 66.13371277 C285.40516968 65.39765808 285.29559937 64.66160339 285.18270874 63.90324402 C284.47934714 60.98696699 283.53181577 59.26846461 281.82723999 56.82121277 C281.29227905 56.05293152 280.75731812 55.28465027 280.20614624 54.49308777 C279.36890015 53.32519714 279.36890015 53.32519714 278.51473999 52.13371277 C277.96688843 51.35511902 277.41903687 50.57652527 276.85458374 49.77433777 C274.78733045 46.87118424 274.78733045 46.87118424 272.51473999 44.13371277 C271.85473999 44.13371277 271.19473999 44.13371277 270.51473999 44.13371277 C270.18473999 43.14371277 269.85473999 42.15371277 269.51473999 41.13371277 C258.2058762 30.32368882 258.2058762 30.32368882 244.51473999 25.13371277 C244.51473999 24.47371277 244.51473999 23.81371277 244.51473999 23.13371277 C241.62186709 22.12436148 238.72595484 21.12602533 235.82723999 20.13371277 C235.0106189 19.84754089 234.1939978 19.56136902 233.35263062 19.26652527 C227.57994019 17.30100534 227.57994019 17.30100534 221.51473999 17.13371277 C221.51473999 16.47371277 221.51473999 15.81371277 221.51473999 15.13371277 C214.97950569 14.29598058 208.62224529 13.994783 202.03793335 14.02018738 C201.01589341 14.02006684 199.99385347 14.01994631 198.94084263 14.01982212 C195.66206683 14.02056314 192.38334925 14.02815412 189.10458374 14.03605652 C187.0684919 14.03752845 185.03239967 14.03854761 182.99630737 14.03910828 C175.48161244 14.04433201 167.96692563 14.05829328 160.45223999 14.07121277 C143.64286499 14.09183777 126.83348999 14.11246277 109.51473999 14.13371277 Z M-21.48526001 17.13371277 C-22.91782475 17.448727 -24.35532901 17.7425014 -25.79776001 18.00871277 C-30.68736863 19.03985472 -35.0080456 20.95331993 -39.48526001 23.13371277 C-39.48526001 23.79371277 -39.48526001 24.45371277 -39.48526001 25.13371277 C-40.41338501 25.29871277 -41.34151001 25.46371277 -42.29776001 25.63371277 C-50.95810691 28.17268997 -57.81463265 35.19883393 -64.11026001 41.38371277 C-64.63128296 41.89079773 -65.15230591 42.39788269 -65.68911743 42.92033386 C-68.30258338 45.56744584 -69.85754643 47.45112641 -70.48526001 51.13371277 C-72.54776001 52.38371277 -72.54776001 52.38371277 -74.48526001 53.13371277 C-74.48526001 54.12371277 -74.48526001 55.11371277 -74.48526001 56.13371277 C-75.14526001 56.13371277 -75.80526001 56.13371277 -76.48526001 56.13371277 C-77.13521298 57.54849412 -77.78004723 58.96562764 -78.42276001 60.38371277 C-78.78240845 61.17261902 -79.14205688 61.96152527 -79.51260376 62.77433777 C-80.3855928 64.89194975 -80.99864509 66.90040639 -81.48526001 69.13371277 C-82.14526001 69.13371277 -82.80526001 69.13371277 -83.48526001 69.13371277 C-83.81526001 71.11371277 -84.14526001 73.09371277 -84.48526001 75.13371277 C-85.14526001 75.13371277 -85.80526001 75.13371277 -86.48526001 75.13371277 C-86.79463501 76.41246277 -87.10401001 77.69121277 -87.42276001 79.00871277 C-87.68379517 80.08765808 -87.68379517 80.08765808 -87.95010376 81.18840027 C-89.48153505 89.61686151 -89.64146956 98.02499806 -89.61026001 106.57121277 C-89.6141272 107.62631042 -89.61799438 108.68140808 -89.62197876 109.76847839 C-89.60999387 119.50620372 -89.45862297 128.66423433 -85.92276001 137.82121277 C-85.46772095 139.02132996 -85.01268188 140.22144714 -84.54385376 141.45793152 C-84.19451782 142.34093933 -83.84518188 143.22394714 -83.48526001 144.13371277 C-82.82526001 144.13371277 -82.16526001 144.13371277 -81.48526001 144.13371277 C-81.3756897 144.74859558 -81.26611938 145.36347839 -81.15322876 145.99699402 C-80.99467407 146.80523621 -80.83611938 147.61347839 -80.67276001 148.44621277 C-80.5219397 149.24672058 -80.37111938 150.04722839 -80.21572876 150.87199402 C-79.40025244 153.39691801 -78.5657233 154.51441011 -76.48526001 156.13371277 C-75.82526001 156.13371277 -75.16526001 156.13371277 -74.48526001 156.13371277 C-74.44401001 156.79371277 -74.40276001 157.45371277 -74.36026001 158.13371277 C-72.78073822 163.54921604 -68.70855501 168.4181363 -64.48526001 172.13371277 C-63.82526001 172.13371277 -63.16526001 172.13371277 -62.48526001 172.13371277 C-62.15526001 173.12371277 -61.82526001 174.11371277 -61.48526001 175.13371277 C-60.82526001 175.13371277 -60.16526001 175.13371277 -59.48526001 175.13371277 C-59.15526001 176.12371277 -58.82526001 177.11371277 -58.48526001 178.13371277 C-56.6984426 179.58513161 -56.6984426 179.58513161 -54.54776001 180.82121277 C-53.83748657 181.25820496 -53.12721313 181.69519714 -52.39541626 182.14543152 C-50.54765009 183.28688668 -50.54765009 183.28688668 -48.48526001 183.13371277 C-48.48526001 183.79371277 -48.48526001 184.45371277 -48.48526001 185.13371277 C-47.95416626 185.39925964 -47.42307251 185.66480652 -46.87588501 185.93840027 C-40.48526001 189.13371277 -40.48526001 189.13371277 -38.40713501 190.26652527 C-36.38091804 191.3393572 -36.38091804 191.3393572 -33.48526001 191.13371277 C-33.48526001 191.79371277 -33.48526001 192.45371277 -33.48526001 193.13371277 C-19.80033542 200.47684303 -1.60148186 198.39949247 13.38583374 198.32902527 C15.49524835 198.32607781 17.60466444 198.32404171 19.71408081 198.32292175 C27.46015645 198.31251584 35.2062006 198.28459359 42.95223999 198.25871277 C60.29786499 198.21746277 77.64348999 198.17621277 95.51473999 198.13371277 C95.51473999 137.74371277 95.51473999 77.35371277 95.51473999 15.13371277 C77.32348999 15.09246277 59.13223999 15.05121277 40.38973999 15.00871277 C34.64938354 14.99050476 28.9090271 14.97229675 22.99472046 14.95353699 C17.84153867 14.94684742 17.84153867 14.94684742 12.68835449 14.94282532 C10.39611027 14.93975757 8.10386923 14.9327305 5.81164551 14.92256165 C2.33615526 14.90791653 -1.13913804 14.90590099 -4.61465454 14.90666199 C-5.63295412 14.89946577 -6.6512537 14.89226955 -7.70041084 14.88485527 C-12.7201568 14.89956298 -16.77381679 15.18713435 -21.48526001 17.13371277 Z " fill="#0C0709" transform="translate(300.4852600097656,256.8662872314453)"/>
<path d="M0 0 C33.99 0 67.98 0 103 0 C103 0.33 103 0.66 103 1 C69.34 1 35.68 1 1 1 C1 31.36 1 61.72 1 93 C6.82531949 87.17468051 8.30360486 81.93890464 9 74 C6.69 74 4.38 74 2 74 C2 72.68 2 71.36 2 70 C7.61 70 13.22 70 19 70 C19 71.32 19 72.64 19 74 C17.02 74 15.04 74 13 74 C13.03413758 81.37371799 15.12893171 85.53308238 20 91 C19.34 92.32 18.68 93.64 18 95 C15.18060883 92.79020692 12.46941056 90.59937954 10 88 C9.731875 88.763125 9.46375 89.52625 9.1875 90.3125 C8.03868178 92.91245703 7.32721056 94.38885423 5 96 C3.68 95.67 2.36 95.34 1 95 C1 124.37 1 153.74 1 184 C34.33 184 67.66 184 102 184 C102 184.33 102 184.66 102 185 C68.34 185 34.68 185 0 185 C0 123.95 0 62.9 0 0 Z " fill="#C5BDC0" transform="translate(410,271)"/>
<path d="M0 0 C11.22 0 22.44 0 34 0 C34 1.32 34 2.64 34 4 C29.05 4 24.1 4 19 4 C19 4.99 19 5.98 19 7 C22.3 7 25.6 7 29 7 C29 9.97 29 12.94 29 16 C22.4 16 15.8 16 9 16 C9 16.66 9 17.32 9 18 C15.93 18 22.86 18 30 18 C30 19.32 30 20.64 30 22 C21.75 22 13.5 22 5 22 C5 17.05 5 12.1 5 7 C8.3 7 11.6 7 15 7 C15 6.01 15 5.02 15 4 C10.05 4 5.1 4 0 4 C0 2.68 0 1.36 0 0 Z " fill="#000000" transform="translate(456,354)"/>
<path d="M0 0 C1.32 0 2.64 0 4 0 C4 1.65 4 3.3 4 5 C9.28 5 14.56 5 20 5 C20 3.35 20 1.7 20 0 C21.32 0 22.64 0 24 0 C24 5.94 24 11.88 24 18 C16.08 18 8.16 18 0 18 C0 12.06 0 6.12 0 0 Z " fill="#010204" transform="translate(357,337)"/>
<path d="M0 0 C5.94 0 11.88 0 18 0 C18 4.95 18 9.9 18 15 C13.38 15 8.76 15 4 15 C4 17.64 4 20.28 4 23 C5.423125 22.7525 5.423125 22.7525 6.875 22.5 C11.5763877 21.81458208 16.26003286 21.91416559 21 22 C21 23.32 21 24.64 21 26 C18.65147472 27.17426264 17.26225935 27.11508173 14.6484375 27.09765625 C13.79765625 27.09443359 12.946875 27.09121094 12.0703125 27.08789062 C11.18085938 27.07951172 10.29140625 27.07113281 9.375 27.0625 C8.4778125 27.05798828 7.580625 27.05347656 6.65625 27.04882812 C4.43747169 27.03702611 2.21872757 27.01909039 0 27 C0 21.72 0 16.44 0 11 C4.29 11 8.58 11 13 11 C13 8.69 13 6.38 13 4 C8.71 4 4.42 4 0 4 C0 2.68 0 1.36 0 0 Z " fill="#020509" transform="translate(310,341)"/>
<path d="M0 0 C2.5625 1.5625 2.5625 1.5625 4 4 C4.77423495 7.96897282 4.63052206 10.93085389 2.5625 14.4375 C-1.19645902 16.72954818 -4.61152685 17.42444645 -9 17 C-12.05929781 15.75385018 -12.82669832 14.73055852 -15 12 C-15.78253887 8.93050644 -15.51832388 7.26544044 -15 4 C-10.66304479 -1.63804177 -6.5383297 -1.46328516 0 0 Z " fill="#0C0C0C" transform="translate(517,350)"/>
<path d="M0 0 C11.22 0 22.44 0 34 0 C34 1.32 34 2.64 34 4 C31.36 4 28.72 4 26 4 C26 8.29 26 12.58 26 17 C24.35 17 22.7 17 21 17 C21 12.71 21 8.42 21 4 C18.36 4 15.72 4 13 4 C13 8.29 13 12.58 13 17 C11.35 17 9.7 17 8 17 C8 12.71 8 8.42 8 4 C5.36 4 2.72 4 0 4 C0 2.68 0 1.36 0 0 Z " fill="#03070D" transform="translate(352,359)"/>
<path d="M0 0 C1.32 0 2.64 0 4 0 C4 0.99 4 1.98 4 3 C7.96 3 11.92 3 16 3 C16 4.32 16 5.64 16 7 C11.545 7.495 11.545 7.495 7 8 C10.66291938 10.47785723 13.6109185 11.48964169 18 12 C17.34 13.32 16.68 14.64 16 16 C12.20127427 15.62939261 9.59664131 14.87009862 6.4375 12.8125 C3.25409705 10.65863102 3.25409705 10.65863102 0.5 11.5625 C-0.325 12.036875 -1.15 12.51125 -2 13 C-8.4 16.03157895 -8.4 16.03157895 -11.375 15.875 C-13 15 -13 15 -14 12 C-13.28972656 11.79503906 -12.57945312 11.59007812 -11.84765625 11.37890625 C-10.92855469 11.10949219 -10.00945312 10.84007812 -9.0625 10.5625 C-8.14597656 10.29566406 -7.22945313 10.02882813 -6.28515625 9.75390625 C-4.0597507 9.20973949 -4.0597507 9.20973949 -3 8 C-5.97 7.67 -8.94 7.34 -12 7 C-12 5.68 -12 4.36 -12 3 C-8.04 3 -4.08 3 0 3 C0 2.01 0 1.02 0 0 Z " fill="#0F0F0F" transform="translate(471,337)"/>
<path d="M0 0 C1.65 0 3.3 0 5 0 C5 5.28 5 10.56 5 16 C6.98 16 8.96 16 11 16 C11 17.32 11 18.64 11 20 C9.02 20 7.04 20 5 20 C5 25.94 5 31.88 5 38 C3.35 38 1.7 38 0 38 C0 25.46 0 12.92 0 0 Z " fill="#1E1E1E" transform="translate(525,338)"/>
<path d="M0 0 C5.61 0 11.22 0 17 0 C17 1.32 17 2.64 17 4 C15.02 4 13.04 4 11 4 C11.03413758 11.37371799 13.12893171 15.53308238 18 21 C17.34 22.32 16.68 23.64 16 25 C13.18060883 22.79020692 10.46941056 20.59937954 8 18 C7.731875 18.763125 7.46375 19.52625 7.1875 20.3125 C6.05575888 22.87380884 5.08776599 24.19692938 3 26 C2.01 25.67 1.02 25.34 0 25 C0.28746094 24.42765625 0.57492187 23.8553125 0.87109375 23.265625 C4.106419 16.77258471 6.46873627 11.30487633 7 4 C4.69 4 2.38 4 0 4 C0 2.68 0 1.36 0 0 Z " fill="#0E0E0E" transform="translate(412,341)"/>
<path d="M0 0 C1.65 0 3.3 0 5 0 C5 11.88 5 23.76 5 36 C3.35 36 1.7 36 0 36 C0 29.07 0 22.14 0 15 C-1.65 15 -3.3 15 -5 15 C-5 13.68 -5 12.36 -5 11 C-3.35 11 -1.7 11 0 11 C0 7.37 0 3.74 0 0 Z " fill="#1E1E1E" transform="translate(432,339)"/>
<path d="M0 0 C5.94 0 11.88 0 18 0 C18 10.12871287 18 10.12871287 15.25 13.75 C14.69699219 14.49121094 14.14398437 15.23242188 13.57421875 15.99609375 C13.05472656 16.65738281 12.53523437 17.31867188 12 18 C11.360625 18.928125 10.72125 19.85625 10.0625 20.8125 C7.34030214 23.69967954 4.51654241 25.17410298 1 27 C0.01 25.68 -0.98 24.36 -2 23 C-1.40832031 22.68289063 -0.81664062 22.36578125 -0.20703125 22.0390625 C7.40222186 17.54550683 10.25860345 12.22418966 13 4 C8.71 4 4.42 4 0 4 C0 2.68 0 1.36 0 0 Z " fill="#121212" transform="translate(546,341)"/>
<path d="M0 0 C1.65 0 3.3 0 5 0 C5 12.54 5 25.08 5 38 C3.35 38 1.7 38 0 38 C0 25.46 0 12.92 0 0 Z " fill="#222222" transform="translate(570,338)"/>
<path d="M0 0 C1.65 0 3.3 0 5 0 C5 12.54 5 25.08 5 38 C3.35 38 1.7 38 0 38 C0 25.46 0 12.92 0 0 Z " fill="#07101B" transform="translate(334,338)"/>
<path d="M0 0 C1.32 0 2.64 0 4 0 C4 12.54 4 25.08 4 38 C2.68 38 1.36 38 0 38 C0 25.46 0 12.92 0 0 Z " fill="#000000" transform="translate(440,338)"/>
<path d="M0 0 C0.33 0 0.66 0 1 0 C1 3.63 1 7.26 1 11 C-0.65 11 -2.3 11 -4 11 C-4 12.32 -4 13.64 -4 15 C-2.35 15 -0.7 15 1 15 C1 21.93 1 28.86 1 36 C0.67 36 0.34 36 0 36 C-0.01417969 35.20335937 -0.02835937 34.40671875 -0.04296875 33.5859375 C-0.35971699 26.54899008 -0.86339638 22.88603759 -6 18 C-8.13586678 14.79619983 -8.23132175 13.98060033 -8.125 10.3125 C-8.10695313 9.50425781 -8.08890625 8.69601562 -8.0703125 7.86328125 C-8.04710937 7.24839844 -8.02390625 6.63351562 -8 6 C-6.02 6 -4.04 6 -2 6 C-1.855625 5.38125 -1.71125 4.7625 -1.5625 4.125 C-1 2 -1 2 0 0 Z " fill="#EBEBEB" transform="translate(431,339)"/>
<path d="M0 0 C0.33 1.32 0.66 2.64 1 4 C3.31 4 5.62 4 8 4 C8.646592 10.98319361 7.01887694 16.1924398 3 22 C2.01 22.33 1.02 22.66 0 23 C0 15.41 0 7.82 0 0 Z " fill="#F6F6F6" transform="translate(411,341)"/>
<path d="M0 0 C1.65 0 3.3 0 5 0 C5 1.65 5 3.3 5 5 C7.97 5 10.94 5 14 5 C14 6.32 14 7.64 14 9 C6.41 9 -1.18 9 -9 9 C-9 7.68 -9 6.36 -9 5 C-6.03 5 -3.06 5 0 5 C0 3.35 0 1.7 0 0 Z " fill="#0A0A0A" transform="translate(509,338)"/>
<path d="M0 0 C1.31668238 5.3864279 1.31668238 5.3864279 0 7.9375 C-3.11004763 9.58971281 -5.65727278 8.69377357 -9 8 C-9.33 5.69 -9.66 3.38 -10 1 C-6.1496895 -1.56687367 -4.41430237 -0.83288724 0 0 Z " fill="#EAEAEA" transform="translate(516,354)"/>
<path d="M0 0 C0.7940625 0.4125 1.588125 0.825 2.40625 1.25 C3.40591797 1.67152344 3.40591797 1.67152344 4.42578125 2.1015625 C6.0859375 2.81770833 7.74609375 3.53385417 9.40625 4.25 C9.40625 4.91 9.40625 5.57 9.40625 6.25 C2.14625 6.25 -5.11375 6.25 -12.59375 6.25 C-12.59375 5.59 -12.59375 4.93 -12.59375 4.25 C-11.04372249 3.35309088 -9.47805082 2.4831803 -7.90625 1.625 C-7.03613281 1.13773437 -6.16601562 0.65046875 -5.26953125 0.1484375 C-2.59375 -0.75 -2.59375 -0.75 0 0 Z " fill="#F7F7F7" transform="translate(474.59375,347.75)"/>
<path d="M0 0 C5.28 0 10.56 0 16 0 C16 1.65 16 3.3 16 5 C10.72 5 5.44 5 0 5 C0 3.35 0 1.7 0 0 Z " fill="#356DB9" transform="translate(361,346)"/>
<path d="M0 0 C0 0.66 0 1.32 0 2 C-1.03125 2.433125 -2.0625 2.86625 -3.125 3.3125 C-5.60540725 4.36403168 -7.92097139 5.48655092 -10.3125 6.75 C-11.199375 7.1625 -12.08625 7.575 -13 8 C-13.66 7.67 -14.32 7.34 -15 7 C-11.375 4 -11.375 4 -8 4 C-8 3.34 -8 2.68 -8 2 C-2.25 0 -2.25 0 0 0 Z " fill="#452833" transform="translate(262,265)"/>
<path d="M0 0 C-0.53675903 3.85103301 -2.11600923 5.31797587 -5.0625 7.75 C-6.16271484 8.67039062 -6.16271484 8.67039062 -7.28515625 9.609375 C-7.85105469 10.06828125 -8.41695312 10.5271875 -9 11 C-9.66 10.67 -10.32 10.34 -11 10 C-2.81818182 0 -2.81818182 0 0 0 Z " fill="#341D27" transform="translate(232,284)"/>
<path d="M0 0 C0 0.66 0 1.32 0 2 C-1.26839526 2.50615298 -2.53983102 3.00469099 -3.8125 3.5 C-4.87404297 3.91765625 -4.87404297 3.91765625 -5.95703125 4.34375 C-8 5 -8 5 -11 5 C-11 4.34 -11 3.68 -11 3 C-9.68 3 -8.36 3 -7 3 C-7 2.34 -7 1.68 -7 1 C-4 0 -4 0 0 0 Z " fill="#492532" transform="translate(543,462)"/>
<path d="M0 0 C0 0.66 0 1.32 0 2 C-1.4562545 2.67119549 -2.91507867 3.33681807 -4.375 4 C-5.59316406 4.556875 -5.59316406 4.556875 -6.8359375 5.125 C-9 6 -9 6 -11 6 C-11 5.34 -11 4.68 -11 4 C-10.34 4 -9.68 4 -9 4 C-9 3.34 -9 2.68 -9 2 C-3.375 0 -3.375 0 0 0 Z " fill="#4A2832" transform="translate(555,457)"/>
<path d="M0 0 C2 2 2 2 2 5 C1.34 5 0.68 5 0 5 C0 5.99 0 6.98 0 8 C-0.66 8 -1.32 8 -2 8 C-1.125 1.125 -1.125 1.125 0 0 Z " fill="#53323F" transform="translate(201,328)"/>
<path d="" fill="#000000" transform="translate(0,0)"/>
<path d="" fill="#000000" transform="translate(0,0)"/>
</svg>
