<svg version="1.1" id="Layer_1" xmlns="http://www.w3.org/2000/svg" xmlns:xlink="http://www.w3.org/1999/xlink" x="0px" y="0px"
	 width="16" height="16" viewBox="0 0 512 512" enable-background="new 0 0 512 512" xml:space="preserve">
<path fill="#FFFFFF" opacity="1.000000" stroke="none"
	d="
M285.000000,513.000000
	C190.023056,513.000000 95.546112,513.000000 1.034582,513.000000
	C1.034582,342.398041 1.034582,171.796051 1.034582,1.097036
	C171.560287,1.097036 342.120667,1.097036 512.840515,1.097036
	C512.840515,171.666550 512.840515,342.333252 512.840515,513.000000
	C437.129364,513.000000 361.314667,513.000000 285.000000,513.000000
M259.109619,63.030830
	C255.062698,63.069748 251.015762,63.108665 246.044388,63.010418
	C176.452560,63.010418 106.860741,63.010418 37.388081,63.010418
	C37.177803,63.825039 37.029881,64.130318 37.029999,64.435524
	C37.049740,114.925537 37.080090,165.415543 37.028214,216.840652
	C37.054878,220.926361 37.081543,225.012085 37.007610,230.017990
	C37.007610,303.273987 37.007610,376.529968 37.007610,449.836334
	C63.716461,449.836334 89.855095,449.836334 116.919388,449.975739
	C121.947784,449.928986 126.976181,449.882202 132.930237,449.988342
	C247.527496,449.988342 362.124756,449.988342 477.000000,449.988342
	C477.000000,447.851196 477.000000,446.214172 477.000000,444.577179
	C477.000000,416.078796 477.013184,387.580414 476.996948,359.082031
	C476.972076,315.419739 476.926971,271.757446 476.971802,227.173950
	C476.945190,224.083313 476.918579,220.992676 476.992432,216.981842
	C476.992432,165.726425 476.992432,114.471008 476.992432,63.000000
	C474.614410,63.000000 472.802856,63.000000 470.991333,63.000000
	C415.499023,63.000000 360.006683,62.989845 304.514374,63.006763
	C289.686493,63.011284 274.858612,63.098557 259.109619,63.030830
z"/>
<path fill="#00A0E0" opacity="1.000000" stroke="none"
	d="
M309.000214,315.833160
	C294.803650,330.251831 280.915009,344.990570 266.337921,359.013702
	C244.825562,379.708496 222.436066,399.464172 197.516968,416.040741
	C184.671371,424.585846 171.606171,432.921417 158.012283,440.174896
	C150.126389,444.382690 140.994995,446.256256 132.214325,449.507843
	C126.976181,449.882202 121.947784,449.928986 116.278336,449.595337
	C111.132652,448.215820 107.707825,445.949097 105.217476,441.843170
	C100.686028,434.371857 101.223099,426.094238 102.269127,418.320465
	C104.335289,402.965271 110.163223,388.604401 116.773674,374.631042
	C132.574265,341.231232 153.070953,310.750824 175.271515,281.083710
	C175.729492,280.954498 175.913437,280.905487 176.496735,280.953552
	C178.529282,281.336273 180.153168,281.792206 181.797058,281.881836
	C203.320312,283.055511 224.835403,284.552338 246.375549,285.183472
	C261.275085,285.620056 276.210175,284.843872 291.398163,284.713623
	C291.851654,284.870636 292.036346,284.923615 292.346069,285.286865
	C298.058258,295.083862 303.645386,304.570587 309.183228,314.351929
	C309.089355,315.042114 309.044769,315.437622 309.000214,315.833160
z"/>
<path fill="#A7CB86" opacity="1.000000" stroke="none"
	d="
M175.271515,281.083710
	C149.979874,278.996490 125.277412,274.792358 101.288643,267.454773
	C87.569626,263.258453 74.214607,257.667633 61.079712,251.839233
	C52.558899,248.058258 45.010078,242.358475 39.812778,234.239670
	C38.875702,232.775833 38.441635,230.989990 37.441772,229.225311
	C37.081543,225.012085 37.054878,220.926361 37.069122,216.373108
	C46.084309,199.956070 61.115005,191.722626 77.437508,186.224167
	C95.955223,179.986206 114.881897,174.786499 133.901779,170.278931
	C145.903030,167.434708 158.363708,166.314041 170.684662,165.086151
	C187.671570,163.393250 204.718384,162.292603 221.745255,161.014420
	C227.823807,160.558121 233.918991,160.323700 240.725616,160.016220
	C241.617996,160.081314 241.791367,160.118210 241.983368,160.537170
	C245.043304,171.580704 248.084595,182.242142 250.968765,193.207977
	C224.199753,221.166763 199.070297,250.089264 176.097397,280.856476
	C175.913437,280.905487 175.729492,280.954498 175.271515,281.083710
z"/>
<path fill="#EEA655" opacity="1.000000" stroke="none"
	d="
M259.570190,63.089333
	C278.249298,70.023575 291.270660,83.454361 303.347351,97.916222
	C310.638580,106.647522 317.371185,115.845345 324.651978,125.264854
	C324.897217,126.046349 324.845215,126.396515 324.463104,126.844749
	C319.312286,130.700012 314.283020,134.221725 309.716644,138.266052
	C301.558228,145.491699 293.678986,153.032578 285.372498,160.539078
	C284.433014,160.804825 283.804077,160.973175 282.735962,161.069977
	C268.852753,160.717300 255.408737,160.436203 241.964722,160.155090
	C241.791367,160.118210 241.617996,160.081314 241.187714,159.977127
	C239.170593,151.696426 237.213776,143.518784 235.712585,135.258316
	C234.519424,128.692749 233.664810,122.045792 233.061127,115.398537
	C232.450562,108.675331 231.541840,101.827713 232.210358,95.180077
	C232.962341,87.702232 234.557693,80.081032 237.307831,73.123672
	C238.796249,69.358246 243.455658,66.846268 246.826721,63.458206
	C251.015762,63.108665 255.062698,63.069748 259.570190,63.089333
z"/>

<path fill="#A7CB86" opacity="1.000000" stroke="none"
	d="
M413.002838,177.836380
	C421.488770,180.890244 430.125549,183.586258 438.423920,187.084976
	C449.822083,191.890579 461.241547,196.994980 469.717682,206.430328
	C472.543823,209.576309 474.090027,213.872147 476.556641,217.772186
	C476.918579,220.992676 476.945190,224.083313 476.931122,227.634552
	C470.595703,243.541718 456.949219,250.705612 442.994202,256.746796
	C431.341278,261.791382 418.924347,265.085907 406.802094,269.021027
	C403.900635,269.962860 400.825745,270.370361 397.174988,271.057098
	C396.519409,271.090607 396.032196,271.025909 395.981079,270.648315
	C390.572388,256.173553 385.214783,242.076385 379.883972,227.735672
	C379.910828,227.492111 379.939941,227.002914 380.228577,226.827698
	C382.727142,223.534912 385.101654,220.519882 387.118042,217.281815
	C395.190918,204.317703 403.152649,191.284363 411.463074,178.201599
	C412.181427,178.029846 412.592133,177.933121 413.002838,177.836380
z"/>

<path fill="#EEA655" opacity="1.000000" stroke="none"
	d="
M396.032196,271.025940
	C396.032196,271.025909 396.519409,271.090607 396.760956,271.131989
	C401.632202,289.024170 407.188538,306.700745 410.588654,324.782776
	C413.154663,338.429077 413.306152,352.581604 413.810394,366.534943
	C413.986694,371.412964 412.395477,376.487030 410.940613,381.267365
	C406.369324,396.287598 394.685333,399.516327 381.449097,393.669220
	C365.908813,386.804291 354.024567,375.138489 343.650757,362.046509
	C333.129181,348.768097 323.172394,335.041473 313.011200,321.479004
	C311.754364,319.801453 310.761169,317.926361 309.322998,315.987976
	C309.044769,315.437622 309.089355,315.042114 309.452698,314.171356
	C314.278839,308.849060 318.924255,304.121704 323.257629,299.123718
	C328.338531,293.263519 333.147980,287.167969 338.355255,281.086609
	C339.000153,280.856842 339.364929,280.714996 340.151306,280.700134
	C347.595154,279.877899 354.665344,279.191162 361.628937,277.920166
	C373.132874,275.820496 384.568054,273.343750 396.032196,271.025940
z"/>

<path fill="#FFFFFF" opacity="1.000000" stroke="none"
	d="
M339.729736,280.573151
	C339.364929,280.714996 339.000153,280.856842 337.926666,281.035767
	C322.218994,282.374084 307.220032,283.675354 292.221039,284.976593
	C292.036346,284.923615 291.851654,284.870636 291.373535,284.360870
	C284.358887,269.874115 277.156403,256.049988 271.044220,241.759537
	C264.162842,225.670685 258.264130,209.161530 252.097839,192.553741
	C262.563538,181.895355 272.869324,171.518448 283.175140,161.141525
	C283.804077,160.973175 284.433014,160.804825 285.842529,160.719254
	C307.458649,162.496552 328.294189,164.191071 349.339569,165.936432
	C349.549408,165.987244 349.938171,166.175293 349.995026,166.518982
	C356.762634,180.028641 363.539307,193.161591 370.156891,206.374237
	C373.564148,213.177216 376.688019,220.122131 379.939941,227.002914
	C379.939941,227.002914 379.910828,227.492111 379.638306,227.947983
	C374.067383,235.605865 368.867798,242.883194 363.447205,249.991989
	C355.625458,260.249817 347.643372,270.385406 339.729736,280.573151
z"/>
<path fill="#CFE1E1" opacity="1.000000" stroke="none"
	d="
M251.937973,192.835190
	C258.264130,209.161530 264.162842,225.670685 271.044220,241.759537
	C277.156403,256.049988 284.358887,269.874115 291.104736,284.256836
	C276.210175,284.843872 261.275085,285.620056 246.375549,285.183472
	C224.835403,284.552338 203.320312,283.055511 181.797058,281.881836
	C180.153168,281.792206 178.529282,281.336273 176.496735,280.953552
	C199.070297,250.089264 224.199753,221.166763 251.172256,193.204468
	C251.532867,192.896591 251.937973,192.835190 251.937973,192.835190
z"/>
<path fill="#F4E88B" opacity="1.000000" stroke="none"
	d="
M292.346069,285.286865
	C307.220032,283.675354 322.218994,282.374084 337.646576,281.123657
	C333.147980,287.167969 328.338531,293.263519 323.257629,299.123718
	C318.924255,304.121704 314.278839,308.849060 309.502014,313.876709
	C303.645386,304.570587 298.058258,295.083862 292.346069,285.286865
z"/>
<path fill="#F5E78A" opacity="1.000000" stroke="none"
	d="
M252.097839,192.553741
	C251.937973,192.835190 251.532867,192.896591 251.329376,192.900085
	C248.084595,182.242142 245.043304,171.580704 241.983368,160.537170
	C255.408737,160.436203 268.852753,160.717300 282.735962,161.069977
	C272.869324,171.518448 262.563538,181.895355 252.097839,192.553741
z"/>
<path fill="#00A0E0" opacity="1.000000" stroke="none"
	d="
M349.938171,166.175293
	C349.938171,166.175293 349.549408,165.987244 349.267090,165.595093
	C340.920959,152.384201 332.857117,139.565445 324.793274,126.746689
	C324.845215,126.396515 324.897217,126.046349 324.963440,125.430969
	C345.615723,108.828659 367.135956,93.860451 391.238953,82.985626
	C400.824463,78.660843 410.724304,75.655045 421.476898,75.941910
	C433.140503,76.253067 440.609039,83.991730 441.085602,95.777016
	C441.760223,112.461021 436.698547,127.706322 430.028046,142.512039
	C424.750549,154.225906 418.717926,165.599533 413.011719,177.480316
	C412.592133,177.933121 412.181427,178.029846 411.070251,178.075867
	C390.225891,174.075211 370.082031,170.125244 349.938171,166.175293
z"/>
<path fill="#F0CFAC" opacity="1.000000" stroke="none"
	d="
M324.463135,126.844757
	C332.857117,139.565445 340.920959,152.384201 349.057251,165.544281
	C328.294189,164.191071 307.458649,162.496552 286.153076,160.621857
	C293.678986,153.032578 301.558228,145.491699 309.716644,138.266052
	C314.283020,134.221725 319.312286,130.700012 324.463135,126.844757
z"/>
<path fill="#CEE1E1" opacity="1.000000" stroke="none"
	d="
M349.995026,166.518982
	C370.082031,170.125244 390.225891,174.075211 410.762604,178.150894
	C403.152649,191.284363 395.190918,204.317703 387.118042,217.281815
	C385.101654,220.519882 382.727142,223.534912 380.228577,226.827698
	C376.688019,220.122131 373.564148,213.177216 370.156891,206.374237
	C363.539307,193.161591 356.762634,180.028641 349.995026,166.518982
z"/>
<path fill="#F1CFAC" opacity="1.000000" stroke="none"
	d="
M340.151306,280.700134
	C347.643372,270.385406 355.625458,260.249817 363.447205,249.991989
	C368.867798,242.883194 374.067383,235.605865 379.611450,228.191544
	C385.214783,242.076385 390.572388,256.173553 395.981079,270.648315
	C384.568054,273.343750 373.132874,275.820496 361.628937,277.920166
	C354.665344,279.191162 347.595154,279.877899 340.151306,280.700134
z"/>
</svg>